<svg xmlns="http://www.w3.org/2000/svg" width="926" height="924">
  <g fill="#ADE0EF" fill-rule="nonzero">
    <path d="M78 0h2.944v923H78V0zM1 0h2.944v923H1V0zm153.94 0h2.945v923h-2.944V0zm76.844 0h2.944v923h-2.944V0zm76.94 0h2.945v923h-2.944V0zm76.942 0h2.944v923h-2.944V0zm76.842 0h2.945v923h-2.945V0zm76.941 0h2.944v923h-2.944V0zm76.941 0h2.944v923h-2.944V0zm76.941 0h2.944v923h-2.944V0zm76.843 0h2.944v923h-2.944V0zm76.94 0h2.945v923h-2.944V0z"/>
    <path d="M2 75.805h923v2.941H2v-2.941zm0 76.868h923v2.941H2v-2.941zm0 76.868h923v2.941H2v-2.941zm0 76.868h923v2.941H2v-2.941zm0 76.77h923v2.941H2v-2.941zm0 76.868h923v2.941H2v-2.941zm0 76.868h923v2.941H2v-2.941zm0 76.77h923v2.941H2v-2.941zm0 76.868h923v2.941H2v-2.941zm0 76.868h923v2.941H2v-2.941zm0 76.868h923v2.941H2v-2.941zm0 76.77h923V924H2v-2.941zM2 0h925v2H2z"/>
  </g>
</svg>
